<svg width="1024" height="1024" viewBox="0 0 1024 1024" fill="none" xmlns="http://www.w3.org/2000/svg">
<rect width="1024" height="1024" fill="white"/>
<path opacity="0.5" fill-rule="evenodd" clip-rule="evenodd" d="M173.018 672.075C173.018 718.821 197.963 762.013 238.453 785.374L430.583 896.232C482.362 926.11 543.647 925.836 595.426 895.958L786.41 785.776C826.902 762.415 851.85 719.221 851.85 672.474V352.67C851.85 305.925 827.193 261.687 786.704 238.326L596.782 128.784L596.778 128.787C544.999 98.9094 481.22 98.9097 429.441 128.788L238.457 238.969C197.965 262.33 173.018 305.524 173.018 352.271V672.075ZM735.53 379.996L800.933 396.347V500.991L735.53 484.64V379.996ZM735.53 523.882L800.933 540.233V644.877L735.53 628.526V523.882Z" fill="black"/>
<path opacity="0.3" fill-rule="evenodd" clip-rule="evenodd" d="M684.598 747.617L430.614 896.23L238.453 785.374C197.963 762.013 173.018 718.821 173.018 672.075V352.271C173.018 305.524 197.965 262.33 238.457 238.969L429.441 128.788C481.22 98.9097 544.999 98.9094 596.778 128.787L596.782 128.784L768.235 227.694L684.662 276.715V276.719V747.617H684.598ZM564.577 379.996L629.979 396.347V500.991L564.577 484.64V379.996ZM564.577 523.882L629.979 540.233V644.877L564.577 628.526V523.882Z" fill="black"/>
<path opacity="0.3" fill-rule="evenodd" clip-rule="evenodd" d="M173.018 672.075C173.018 718.821 197.963 762.013 238.453 785.374L343.712 846.096L511.604 747.617H513.113V276.722L681.751 177.805L596.778 128.787C544.999 98.9094 481.22 98.9097 429.441 128.788L238.457 238.969C197.965 262.33 173.018 305.524 173.018 352.271V672.075ZM393.623 379.996L459.026 396.347V500.991L393.623 484.64V379.996ZM393.623 523.882L459.026 540.233V644.877L393.623 628.526V523.882Z" fill="black"/>
<path fill-rule="evenodd" clip-rule="evenodd" d="M344.571 276.722L596.78 128.788C545.001 98.9094 481.221 98.9094 429.441 128.788L238.457 238.969C197.965 262.33 173.018 305.524 173.018 352.271V672.075C173.018 718.821 197.963 762.013 238.453 785.374L258.743 797.081L343.064 747.62H344.571V276.722ZM222.67 379.996L288.072 396.347V500.991L222.67 484.64V379.996ZM222.67 523.882L288.072 540.233V644.877L222.67 628.526V523.882Z" fill="black"/>
</svg>
