<svg width="3262" height="1492" viewBox="0 0 3262 1492" fill="none" xmlns="http://www.w3.org/2000/svg">
<rect width="3262" height="1492" fill="white"/>
<path opacity="0.5" fill-rule="evenodd" clip-rule="evenodd" d="M382.016 906.075C382.016 952.821 406.961 996.013 447.451 1019.37L639.581 1130.23C691.36 1160.11 752.645 1159.84 804.424 1129.96L995.408 1019.78C1035.9 996.415 1060.85 953.221 1060.85 906.474V586.67C1060.85 539.925 1036.19 495.687 995.702 472.326L805.78 362.784L805.776 362.787C753.997 332.909 690.218 332.91 638.439 362.788L447.455 472.969C406.963 496.33 382.016 539.524 382.016 586.271V906.075ZM944.528 613.996L1009.93 630.347V734.991L944.528 718.64V613.996ZM944.528 757.882L1009.93 774.233V878.877L944.528 862.526V757.882Z" fill="#3A334D"/>
<path opacity="0.3" fill-rule="evenodd" clip-rule="evenodd" d="M893.596 981.617L639.612 1130.23L447.451 1019.37C406.961 996.013 382.016 952.821 382.016 906.075V586.271C382.016 539.524 406.963 496.33 447.455 472.969L638.439 362.788C690.218 332.91 753.997 332.909 805.776 362.787L805.78 362.784L977.233 461.694L893.66 510.715V510.719V981.617H893.596ZM773.575 613.996L838.977 630.347V734.991L773.575 718.64V613.996ZM773.575 757.882L838.977 774.233V878.877L773.575 862.526V757.882Z" fill="#3A334D"/>
<path opacity="0.3" fill-rule="evenodd" clip-rule="evenodd" d="M382.016 906.075C382.016 952.821 406.961 996.013 447.451 1019.37L552.711 1080.1L720.602 981.617H722.111V510.722L890.749 411.805L805.776 362.787C753.997 332.909 690.218 332.91 638.439 362.788L447.455 472.969C406.963 496.33 382.016 539.524 382.016 586.271V906.075ZM602.621 613.996L668.024 630.347V734.991L602.621 718.64V613.996ZM602.621 757.882L668.024 774.233V878.877L602.621 862.526V757.882Z" fill="#3A334D"/>
<path fill-rule="evenodd" clip-rule="evenodd" d="M553.569 510.722L805.778 362.788C753.999 332.909 690.219 332.909 638.439 362.788L447.455 472.969C406.963 496.33 382.016 539.524 382.016 586.271V906.075C382.016 952.821 406.961 996.013 447.451 1019.37L467.741 1031.08L552.062 981.62H553.569V510.722ZM431.668 613.996L497.07 630.347V734.991L431.668 718.64V613.996ZM431.668 757.882L497.07 774.233V878.877L431.668 862.526V757.882Z" fill="#3A334D"/>
<path d="M1771.28 717.888C1771.28 780.577 1759.54 834.27 1736.06 878.967C1712.76 923.475 1680.94 957.566 1640.6 981.24C1600.45 1004.91 1554.9 1016.75 1503.95 1016.75C1453.01 1016.75 1407.36 1004.91 1367.02 981.24C1326.87 957.376 1295.05 923.191 1271.57 878.683C1248.27 833.986 1236.63 780.388 1236.63 717.888C1236.63 655.198 1248.27 601.6 1271.57 557.092C1295.05 512.395 1326.87 478.21 1367.02 454.535C1407.36 430.861 1453.01 419.024 1503.95 419.024C1554.9 419.024 1600.45 430.861 1640.6 454.535C1680.94 478.21 1712.76 512.395 1736.06 557.092C1759.54 601.6 1771.28 655.198 1771.28 717.888ZM1665.32 717.888C1665.32 673.759 1658.41 636.543 1644.58 606.24C1630.94 575.748 1612 552.736 1587.76 537.206C1563.52 521.486 1535.58 513.626 1503.95 513.626C1472.33 513.626 1444.39 521.486 1420.15 537.206C1395.91 552.736 1376.87 575.748 1363.05 606.24C1349.41 636.543 1342.59 673.759 1342.59 717.888C1342.59 762.017 1349.41 799.327 1363.05 829.82C1376.87 860.123 1395.91 883.134 1420.15 898.854C1444.39 914.384 1472.33 922.149 1503.95 922.149C1535.58 922.149 1563.52 914.384 1587.76 898.854C1612 883.134 1630.94 860.123 1644.58 829.82C1658.41 799.327 1665.32 762.017 1665.32 717.888ZM1850.38 1008.8V572.433H1950.1V645.161H1954.65C1962.6 619.971 1976.24 600.558 1995.55 586.922C2015.06 573.096 2037.32 566.183 2062.32 566.183C2068 566.183 2074.34 566.467 2081.35 567.035C2088.55 567.414 2094.51 568.077 2099.25 569.024V663.626C2094.89 662.111 2087.98 660.785 2078.51 659.649C2069.23 658.323 2060.23 657.661 2051.52 657.661C2032.77 657.661 2015.91 661.732 2000.95 669.876C1986.18 677.831 1974.53 688.911 1966.01 703.115C1957.49 717.32 1953.22 733.702 1953.22 752.263V1008.8H1850.38ZM2254.41 426.979V1008.8H2151.57V426.979H2254.41ZM2408.09 1172.43C2394.07 1172.43 2381.1 1171.3 2369.17 1169.02C2357.42 1166.94 2348.05 1164.48 2341.04 1161.64L2364.9 1081.52C2379.87 1085.88 2393.22 1087.96 2404.96 1087.77C2416.7 1087.58 2427.02 1083.89 2435.93 1076.69C2445.02 1069.69 2452.69 1057.94 2458.94 1041.47L2467.74 1017.89L2309.51 572.433H2418.6L2519.17 901.979H2523.71L2624.56 572.433H2733.94L2559.22 1061.64C2551.08 1084.74 2540.28 1104.54 2526.84 1121.01C2513.39 1137.68 2496.91 1150.37 2477.4 1159.08C2458.09 1167.98 2434.98 1172.43 2408.09 1172.43Z" fill="#3A334D"/>
</svg>
